<svg xmlns="http://www.w3.org/2000/svg" viewBox="0 0 128.5 21.98"><defs><style>.cls-1{fill:#fff;}</style></defs><g id="Capa_2" data-name="Capa 2"><g id="Capa_2-2" data-name="Capa 2"><path class="cls-1" d="M6.27,3.42Q2.88,12,0,20.73c-.26.8,2.59.43,2.88-.43Q5.75,11.56,9.15,3c.29-.74-2.54-.42-2.88.43Z"/><path class="cls-1" d="M7.06,2.85a158.12,158.12,0,0,1,8.32,17c.49,1.18,3.36.33,2.9-.77A162.85,162.85,0,0,0,9.73,1.63c-.57-1-3.36,0-2.67,1.22Z"/><path class="cls-1" d="M5,14.21h7.15a2.31,2.31,0,0,0,1.91-.8c.36-.58-.3-.89-.79-.89H6.09a2.28,2.28,0,0,0-1.91.8c-.36.57.3.89.79.89Z"/><path class="cls-1" d="M23.94,2.85,35.32,20.63c.69,1.08,3.46,0,2.66-1.27L26.6,1.59c-.69-1.08-3.46,0-2.66,1.26Z"/><path class="cls-1" d="M33.61,1.15,24.24,20.47c-.68,1.39,2.24,1.27,2.74.23L36.36,1.38C37,0,34.12.11,33.61,1.15Z"/><path class="cls-1" d="M45.3,3l.22,17.37c0,.41,2.91,0,2.9-.78L48.2,2.25c0-.41-2.91,0-2.9.77Z"/><path class="cls-1" d="M46.84,3.48h8.69a2.3,2.3,0,0,0,1.91-.8c.35-.57-.31-.88-.8-.88H48a2.28,2.28,0,0,0-1.91.8c-.36.57.31.88.79.88Z"/><path class="cls-1" d="M46.39,22H57.11a2.1,2.1,0,0,0,1.9-.85c.31-.59-.27-1.06-.85-1.06H47.44a2.09,2.09,0,0,0-1.9.84c-.31.59.27,1.07.85,1.07Z"/><path class="cls-1" d="M65,2a132.38,132.38,0,0,1,.34,17.59c-.08,1.54,2.87,1.15,2.94-.2a137.73,137.73,0,0,0-.38-18.17c-.12-1.36-3-.66-2.9.78Z"/><path class="cls-1" d="M65.83,2.86,79.89,19.48c.74.89,3.52-.2,2.67-1.2L68.5,1.65c-.74-.88-3.52.2-2.67,1.21Z"/><path class="cls-1" d="M79.3,1.09q.54,9.38.2,18.78c0,.5,3.12.1,3.15-.85Q83,9.63,82.45.24c0-.58-3.21,0-3.15.85Z"/><path class="cls-1" d="M89.85,2.52V19.88c0,.88,2.89.34,2.89-.78V1.74c0-.89-2.89-.34-2.89.78Z"/><path class="cls-1" d="M92.71,3.29c5.1-.09,11.22,1.92,12,7.74a5.82,5.82,0,0,1-2.9,5.76c-2.52,1.51-5.63,1.39-8.44,1.14a1.89,1.89,0,0,0-1.89.9.94.94,0,0,0,.9,1.26c5.21.46,11.65,0,14.47-5.2,2.49-4.58-.68-9.89-4.87-12a18.79,18.79,0,0,0-9-1.74c-.64,0-1.52.49-1.59,1.19s.76,1,1.35,1Z"/><path class="cls-1" d="M115.68,1.33a172.06,172.06,0,0,1-4,19.32c-.28,1,2.63.6,2.89-.37a169.86,169.86,0,0,0,4-19.32c.17-1.11-2.75-.6-2.89.37Z"/><path class="cls-1" d="M117.12,1.39a122.05,122.05,0,0,1,8.46,18.5c.32.89,3.19,0,2.9-.78A122.05,122.05,0,0,0,120,.61c-.5-.87-3.27.13-2.9.78Z"/><path class="cls-1" d="M115.71,13.94h7.15a1.64,1.64,0,0,0,1.59-1.19c.07-.76-.77-1-1.35-1H116c-.64,0-1.52.49-1.59,1.18s.76,1,1.35,1Z"/><path class="cls-1" d="M46.63,11.65h8.68a2.28,2.28,0,0,0,1.91-.8c.36-.57-.31-.88-.8-.88H47.74a2.28,2.28,0,0,0-1.91.8c-.36.57.31.88.8.88Z"/></g></g></svg>