<svg xmlns="http://www.w3.org/2000/svg" viewBox="0 0 138.8 22.54"><defs><style>.cls-1{fill:#fff;}</style></defs><g id="Capa_2" data-name="Capa 2"><g id="Capa_2-2" data-name="Capa 2"><path class="cls-1" d="M6.44,1.13A179.2,179.2,0,0,1,0,20.45c-.28.7,2.54.39,2.87-.45A179.26,179.26,0,0,0,9.32.68c.21-.79-2.65-.39-2.88.45Z"/><path class="cls-1" d="M7.53,2.33,17.62,21.54c.43.82,3.21-.17,2.89-.78L10.43,1.56c-.44-.83-3.22.17-2.9.77Z"/><path class="cls-1" d="M3.77,16.15a51.21,51.21,0,0,1,10.57-.35,3.45,3.45,0,0,0,2.05-.55c.45-.32.39-.68-.19-.71A57.26,57.26,0,0,0,4.28,15c-.42.06-1.57.32-1.68.83s.93.39,1.17.35Z"/><path class="cls-1" d="M25.5,2.14q7.42,9,14.26,18.53c.74,1,3.51-.07,2.65-1.26Q35.59,9.91,28.15.87c-.81-1-3.57.15-2.65,1.27Z"/><path class="cls-1" d="M40.46,2.37a77.17,77.17,0,0,0-14.21,19.7c-.28.55,1,.48,1.2.45a2.22,2.22,0,0,0,1.68-.89,75.59,75.59,0,0,1,14-19.34c.49-.49-.42-.66-.74-.66a2.83,2.83,0,0,0-1.92.74Z"/><path class="cls-1" d="M49,2.25l1,17.87c0,.42,2.94,0,2.9-.77l-1-17.88c0-.42-2.94,0-2.9.78Z"/><path class="cls-1" d="M51.48,2.19l12.25.62A2.27,2.27,0,0,0,65.64,2c.35-.6-.3-.86-.79-.89L52.6.51a2.24,2.24,0,0,0-1.91.8c-.35.59.3.86.79.88Z"/><path class="cls-1" d="M52.62,10.06H62.83a4.19,4.19,0,0,0,2-.55c.45-.26.42-.54-.14-.54H54.52a4.19,4.19,0,0,0-2,.55c-.45.27-.43.54.14.54Z"/><path class="cls-1" d="M51.36,19.91a39.06,39.06,0,0,0,13.71.91c.45,0,1.56-.33,1.68-.87s-.92-.45-1.2-.42a34.21,34.21,0,0,1-11.84-.86,3,3,0,0,0-2,.33c-.27.14-1,.74-.31.91Z"/><path class="cls-1" d="M72.83,1.27a170.61,170.61,0,0,1,2.9,19.86c.08,1,3,.36,2.9-.78A170.13,170.13,0,0,0,75.73.5c-.21-1-3.12-.31-2.9.77Z"/><path class="cls-1" d="M74.38,1.75a134.66,134.66,0,0,1,15.73,20c.56.88,3.37-.09,2.68-1.17A134.14,134.14,0,0,0,77.06.58c-.75-.78-3.51.3-2.68,1.17Z"/><path class="cls-1" d="M90,2.24,91.5,21.13c.1,1.27,3,.59,2.9-.77L92.9,1.46C92.8.2,89.9.88,90,2.24Z"/><path class="cls-1" d="M100.64,1.73a75.34,75.34,0,0,1,.93,19.2c-.09,1.13,2.82.56,2.9-.38A77,77,0,0,0,103.53,1c-.16-.94-3.08-.25-2.89.77Z"/><path class="cls-1" d="M102.09,2.36c5.23.91,11.7,2.78,12.84,8.82a6,6,0,0,1-2.83,6.28c-2.49,1.59-5.66,1.46-8.48,1.2a2,2,0,0,0-1.89.87c-.3.63.26,1.07.86,1.13,5.2.47,11.83-.13,14.57-5.36,2.45-4.68-.89-9.93-5-12.21a28.52,28.52,0,0,0-9-2.72c-1.35-.23-3,1.66-1,2Z"/><path class="cls-1" d="M125.7,2.25a97.53,97.53,0,0,1-2.79,18.69c-.18.73,2.67.31,2.87-.48a98.17,98.17,0,0,0,2.82-19c0-.53-2.85-.15-2.9.78Z"/><path class="cls-1" d="M126.45,2.14q4.62,8.92,9.57,17.68c.59,1,3.38,0,2.67-1.24q-5-8.74-9.57-17.68c-.55-1-3.33,0-2.67,1.24Z"/><path class="cls-1" d="M126,16h5.62a2.93,2.93,0,0,0,1.13-.23,1.74,1.74,0,0,0,.78-.56c.33-.57-.29-.84-.78-.84h-5.62a3,3,0,0,0-1.14.22,1.68,1.68,0,0,0-.77.57c-.34.57.28.84.78.84Z"/></g></g></svg>