<svg xmlns="http://www.w3.org/2000/svg" viewBox="0 0 11.2 8.63"><defs><style>.cls-1{fill:#fff;}</style></defs><g id="Capa_2" data-name="Capa 2"><g id="Capa_2-2" data-name="Capa 2"><path class="cls-1" d="M5.26.31C3.41,1.37,1.32,3,1.71,5.4A4.26,4.26,0,0,0,6.55,8.58a5.39,5.39,0,0,0,4.63-4.53A3.37,3.37,0,0,0,9.85,1,5.76,5.76,0,0,0,6.36,0,9.23,9.23,0,0,0,2.27.76,3.73,3.73,0,0,0,0,3.91a1.13,1.13,0,0,0,1.35,1c.57-.06,1.62-.47,1.59-1.2a1.08,1.08,0,0,1,.21-.82c-.11.17.14-.15.19-.2-.22.22.42-.23.11-.08l.24-.12c.37-.18-.16,0,.08,0l.6-.15c-.31.07.22,0,.29,0q.36,0,.72-.06l.6,0c-.22,0,.09,0,.14,0l.3,0a2,2,0,0,1,.46.09l.22.08s.34.17.14.06a2.94,2.94,0,0,1,.39.26,1.19,1.19,0,0,1,.18.15c-.13-.13,0,.05.06.08L8,3.2s.11.18,0,0a1.79,1.79,0,0,1,.17.64,1.61,1.61,0,0,1,0,.44c0,.1,0,.2-.05.29-.08.45,0-.07,0,.14a4.19,4.19,0,0,1-.2.49c0,.06-.07.13-.11.2.1-.18-.06.08-.09.12s-.2.24-.3.36h0l-.18.15L7,6.24c-.16.12.21-.1,0,0l-.25.13c-.26.13.17,0,0,0s-.2.1-.27.08.36,0,0,0l-.23,0c-.27,0,0,0,0,0l-.22,0c-.33,0,.12.07,0,0l-.26-.1c-.21-.07,0,0-.07,0A2.36,2.36,0,0,1,4.7,5a1.45,1.45,0,0,1-.06-.92c0-.19,0,.12,0-.06a1.62,1.62,0,0,1,.13-.33,2.12,2.12,0,0,1,.11-.21c0-.08,0-.07,0,0L5,3.36l.15-.19L5.3,3c-.11.11.08-.06.1-.09l.29-.23c.16-.13.33-.24.51-.36,0,0,.26-.16.1-.07l.26-.15c.52-.3,1.12-.92.68-1.54a1.64,1.64,0,0,0-2-.24Z"/></g></g></svg>