<svg xmlns="http://www.w3.org/2000/svg" viewBox="0 0 23.01 22.41"><defs><style>.cls-1{fill:#fff;}</style></defs><g id="Capa_2" data-name="Capa 2"><g id="Capa_2-2" data-name="Capa 2"><path class="cls-1" d="M16.64.74.13,19.51c-.45.51.39.67.73.67a2.84,2.84,0,0,0,1.93-.74L19.3.66c.45-.51-.39-.66-.73-.66a2.79,2.79,0,0,0-1.93.74Z"/><path class="cls-1" d="M1.54,4.76A112.61,112.61,0,0,0,20.2,22.28c.42.32,1.42,0,1.85-.19.17-.06,1.27-.49.88-.78A110.78,110.78,0,0,1,4.44,4c-.56-.66-3.06.59-2.9.78Z"/></g></g></svg>