<svg xmlns="http://www.w3.org/2000/svg" viewBox="0 0 206.31 22.27"><defs><style>.cls-1{fill:#fff;}</style></defs><g id="Capa_2" data-name="Capa 2"><g id="Capa_2-2" data-name="Capa 2"><path class="cls-1" d="M0,2.22q.93,9,1.48,18.08c.09,1.58,3,1.2,2.94-.19Q3.87,10.77,2.9,1.44C2.76,0-.15.74,0,2.22Z"/><path class="cls-1" d="M2,3.42A65.69,65.69,0,0,1,14.39,4a1.86,1.86,0,0,0,1.89-.89c.3-.67-.27-1.17-.89-1.25A69.48,69.48,0,0,0,2.26,1.26c-.64,0-1.52.47-1.59,1.19s.76,1,1.34,1Z"/><path class="cls-1" d="M2.61,11.9H14.36a2.18,2.18,0,0,0,1.9-.82c.34-.58-.28-1-.82-1H3.7a2.21,2.21,0,0,0-1.91.82c-.33.59.29,1,.82,1Z"/><path class="cls-1" d="M3,22.09a139.06,139.06,0,0,1,14.43-.62,2.36,2.36,0,0,0,1.92-.78c.34-.57-.29-.8-.77-.8a144.89,144.89,0,0,0-15.17.66c-.5.05-1.54.36-1.65,1s.87.61,1.24.58Z"/><path class="cls-1" d="M37.25.13C34-.21,30.54,0,27.78,1.89a5.82,5.82,0,0,0-2.49,6.46c1.09,3.28,4.94,2.59,7.59,3.41,2.49.77,7.2,3.36,5.48,6.71-.44.86-1.36,1-2.21,1.11a23.25,23.25,0,0,1-3.21.39,25.59,25.59,0,0,1-6.48-.55,2.7,2.7,0,0,0-2.05.55c-.45.4-.35.77.24.89a28.42,28.42,0,0,0,11.4.07c1.63-.32,3.5-.7,4.65-2a3.81,3.81,0,0,0,.6-3.81c-1.11-2.93-4.8-4.46-7.63-5-1.54-.31-3.55-.05-4.75-1.26A3.94,3.94,0,0,1,28,5.4c.64-3.69,4.27-4.16,7.41-3.83a2.8,2.8,0,0,0,2-.55c.42-.36.39-.82-.23-.89Z"/><path class="cls-1" d="M43,2.18H61.84a2.22,2.22,0,0,0,1.91-.82c.31-.58-.27-.94-.81-.94H44a2.2,2.2,0,0,0-1.9.82c-.32.58.27.94.81.94Z"/><path class="cls-1" d="M51.62,3.24a126,126,0,0,1,2,18.37c0,.92,2.93.35,2.89-.78a125.71,125.71,0,0,0-2-18.36c-.18-1-3.1-.3-2.9.77Z"/><path class="cls-1" d="M70.49,2.44,66.34,19.27c-.3,1.21,2.64.81,2.91-.3L73.4,2.13c.3-1.21-2.64-.8-2.91.31Z"/><path class="cls-1" d="M71.06,3.58,84,20.82c.66.88,3.45-.15,2.68-1.18L73.74,2.39c-.66-.88-3.45.16-2.68,1.19Z"/><path class="cls-1" d="M71.74,16.18c.57-.16,1.14-.31,1.72-.44s-.3,0,.14,0l.4-.08.88-.16.88-.12.18,0,.41,0c.58-.06,1.18-.09,1.77-.11a2.93,2.93,0,0,0,1.93-.71c.44-.5-.4-.57-.71-.56a30.86,30.86,0,0,0-7.87,1.25,3.24,3.24,0,0,0-1,.43c-.12.08-.38.28-.33.47.13.48,1.34.2,1.59.12Z"/><path class="cls-1" d="M86.82,2.51h17.87a2.59,2.59,0,0,0,1.92-.74c.37-.54-.32-.66-.73-.66H88a2.61,2.61,0,0,0-1.93.74c-.37.54.32.66.74.66Z"/><path class="cls-1" d="M94.92,3.77l2.35,15.78c.15,1,3.06.33,2.89-.78L97.82,3c-.15-1-3.07-.33-2.9.78Z"/><path class="cls-1" d="M112.21,2.66c.36,3.71.65,7.44,1.08,11.14.29,2.47.85,5.36,2.84,7.07,2.33,2,5.63,1.67,8.17.27A9.66,9.66,0,0,0,129,13.88c.64-4.06-.34-8.17.35-12.22.19-1.16-2.73-.68-2.9.35-.54,3.17-.07,6.35-.13,9.54-.06,2.62-.46,5.7-2.41,7.65-1.68,1.67-4,1.85-5.59,0s-1.9-4.25-2.14-6.45c-.4-3.62-.7-7.25-1.06-10.87-.09-1-3-.37-2.89.77Z"/><path class="cls-1" d="M135.87,4.13a176,176,0,0,0,20.8-.39c.51,0,1.57-.38,1.65-1s-.83-.67-1.26-.64A170.11,170.11,0,0,1,137,2.46a2.23,2.23,0,0,0-1.91.8c-.33.59.29.85.79.87Z"/><path class="cls-1" d="M144.65,4.47a65,65,0,0,0,1.54,16.63c.31,1.36,3.21.61,2.9-.78a62.38,62.38,0,0,1-1.5-16.06c.06-1.53-2.89-1.13-2.94.21Z"/><path class="cls-1" d="M173.05,1.7a6.17,6.17,0,0,0-6.66-.33,7.91,7.91,0,0,0-4.14,6.12,16.68,16.68,0,0,0,.58,8.21A9.74,9.74,0,0,0,167,20.43a11.38,11.38,0,0,0,13-1,11,11,0,0,0,3.33-12.11c-2-5-7.77-7.78-13-6.9-.56.09-1.53.36-1.63,1s.82.8,1.28.73a9.87,9.87,0,0,1,9.47,4.12,9.34,9.34,0,0,1,.15,10.22,7,7,0,0,1-8.18,3.36,9,9,0,0,1-4.29-2.74,9,9,0,0,1-2-5.22c-.23-2.35-.24-5.12.85-7.27.81-1.58,2.73-3.13,4.45-1.76A1.88,1.88,0,0,0,172.3,3c.31-.14,1.3-.84.75-1.27Z"/><path class="cls-1" d="M202.47,1.71C199.34.82,195.53.77,193,3.18c-2.06,2-1.39,4.73.87,6.16s5,1.48,7.27,2.8a4.08,4.08,0,0,1,2.22,2.77A3.22,3.22,0,0,1,201.84,18a9.94,9.94,0,0,1-4.35,1.35,28.35,28.35,0,0,1-6.51.14,3.16,3.16,0,0,0-2,.55c-.44.33-.41.67.19.72A32.36,32.36,0,0,0,200,20c2.3-.58,5.61-1.88,6.24-4.47s-1.7-4.26-3.82-5.11c-2.31-.93-5.13-1.06-6.91-3a3.05,3.05,0,0,1-.17-4c1.23-1.54,3.16-1,4.81-.51a3,3,0,0,0,2-.35c.27-.14,1-.66.33-.84Z"/></g></g></svg>