<svg xmlns="http://www.w3.org/2000/svg" viewBox="0 0 199.75 22.15"><defs><style>.cls-1{fill:#fff;}</style></defs><g id="Capa_2" data-name="Capa 2"><g id="Capa_2-2" data-name="Capa 2"><path class="cls-1" d="M0,2.33V20.2c0,.71,2.9.22,2.9-.78V1.55c0-.71-2.9-.23-2.9.78Z"/><path class="cls-1" d="M1.84,3.46H14.1c.61,0,1.52-.46,1.6-1.13s-.79-.9-1.32-.9H2.12C1.51,1.43.6,1.9.52,2.57s.79.89,1.32.89Z"/><path class="cls-1" d="M3.39,12.25h9.19c.65,0,1.53-.5,1.59-1.2s-.76-1-1.35-1H3.63A1.63,1.63,0,0,0,2,11.25c-.07.77.76,1,1.35,1Z"/><path class="cls-1" d="M1.33,21.36h14.3c.6,0,1.53-.47,1.6-1.14s-.78-.89-1.32-.89H1.61c-.6,0-1.53.47-1.6,1.14s.78.89,1.32.89Z"/><path class="cls-1" d="M38.41,4.67a10,10,0,0,0-8.8-3.35c-2.83.31-7.62,1.9-7.12,5.57s4.92,4.72,7.94,5.32a9.29,9.29,0,0,1,5,2.19c1.08,1.08,1.85,2.79,1.14,4.28-.84,1.75-3,1.73-4.67,1.73a21.57,21.57,0,0,1-7-1.21,3.08,3.08,0,0,0-2,.37c-.29.15-1,.56-.35.76a22.6,22.6,0,0,0,11.64.92c2.83-.57,6.78-2.5,5.24-6.05s-5.61-3.79-8.86-4.58A7.19,7.19,0,0,1,26.1,7.87a3.3,3.3,0,0,1,.32-4.46c2.72-2.45,7.33-.09,9.26,2.25.45.55,3.18-.44,2.73-1Z"/><path class="cls-1" d="M41.79,3.13l20.93-.59c.52,0,1.64-.21,1.94-.7s-.27-.54-.7-.53L43,1.9c-.52,0-1.65.22-1.94.71s.27.53.7.52Z"/><path class="cls-1" d="M52.43,3.32q.24,9,.51,17.91c0,.8,2.92.26,2.89-.78q-.24-9-.51-17.91c0-.8-2.92-.26-2.89.78Z"/><path class="cls-1" d="M95,3.17c.16,6,.35,11.94.51,17.91,0,.8,2.92.26,2.9-.78-.16-6-.35-11.94-.51-17.91,0-.79-2.93-.26-2.9.78Z"/><path class="cls-1" d="M72.74,3q-3.26,8.79-5.93,17.77c-.2.67.88.84,1.3.8a1.78,1.78,0,0,0,1.62-1.09q2.59-8.71,5.75-17.26C76,1.73,73.14,1.92,72.74,3Z"/><path class="cls-1" d="M73.5,2.89a112.62,112.62,0,0,0,9.77,18.29C83.8,22,86.62,21,86,20.05A110.59,110.59,0,0,1,76.4,2.11c-.42-1-3.28-.12-2.9.78Z"/><path class="cls-1" d="M70,16.48h8.68a2.44,2.44,0,0,0,1.92-.77c.38-.56-.33-.78-.77-.78H71.11a2.44,2.44,0,0,0-1.92.77c-.39.55.33.78.77.78Z"/><path class="cls-1" d="M85.34,2.8h18.9a2.22,2.22,0,0,0,1.9-.81c.33-.58-.27-.91-.8-.91H86.45a2.25,2.25,0,0,0-1.91.81c-.32.58.28.91.8.91Z"/><path class="cls-1" d="M111.85,4.14a25.76,25.76,0,0,0,.9,9.53c.77,2.64,2,5.38,4.33,7a7.27,7.27,0,0,0,8.08,0c2-1.44,2.86-3.85,3.22-6.22a50.27,50.27,0,0,0,.3-11.37c-.08-1-3-.37-2.9.78a50.67,50.67,0,0,1,0,8.71c-.19,2.11-.39,4.46-1.59,6.27a2.68,2.68,0,0,1-1.84,1.34,4.64,4.64,0,0,1-3-1c-1.92-1.45-2.9-3.84-3.57-6.07a24.72,24.72,0,0,1-.94-9.25c.11-1.21-2.81-.68-2.9.34Z"/><path class="cls-1" d="M136.37,3h16.85c.6,0,1.53-.47,1.61-1.14S154,.93,153.51.93H136.66c-.61,0-1.53.47-1.61,1.13s.78.89,1.32.89Z"/><path class="cls-1" d="M143.74,3.63V21c0,1.31,2.91.74,2.91-.32V3.31c0-1.31-2.91-.74-2.91.32Z"/><path class="cls-1" d="M198.27,1.22c-3.61-.07-7.49-.47-10.86,1.12-2.25,1.06-5,4.12-3.07,6.66a6.76,6.76,0,0,0,3.36,1.82,33.25,33.25,0,0,1,4.77,2.11c1.45.75,3,1.44,3.83,2.91a3.08,3.08,0,0,1-.26,3.82c-1,1-2.64.94-3.93,1a13.26,13.26,0,0,1-6-.66,2.82,2.82,0,0,0-2,.34c-.33.18-.92.59-.33.84,3,1.26,6.84,1,10,.45,2.48-.44,6.05-1.63,6-4.7,0-3.35-4.06-4.86-6.54-6.05-1.43-.68-2.93-1.13-4.39-1.72a3,3,0,0,1-2.19-3,4.17,4.17,0,0,1,3.29-3.6,30,30,0,0,1,6.5-.11,3.4,3.4,0,0,0,2-.55c.41-.31.43-.71-.19-.72Z"/><path class="cls-1" d="M169.09.8c-4.61-1.27-8.41,2.25-9.76,6.38s-.93,9.12,2.32,12.27c3,2.86,7.93,3.86,11.25,1a13.86,13.86,0,0,0,4.17-12A10,10,0,0,0,168.46,0a2,2,0,0,0-1.89.86c-.31.65.27,1.06.86,1.13a8,8,0,0,1,6.19,5.13,11.63,11.63,0,0,1-.92,9.66c-.71,1.31-1.71,3-3.3,3.32A5.75,5.75,0,0,1,165.24,19a9.44,9.44,0,0,1-3.67-8.62c.21-2.78,1.91-8.75,5.82-7.68a2.09,2.09,0,0,0,2.05-.54A.76.76,0,0,0,169.09.8Z"/></g></g></svg>