<svg xmlns="http://www.w3.org/2000/svg" viewBox="0 0 128.02 40.3"><defs><style>.cls-1{fill:#fff;}</style></defs><g id="Capa_2" data-name="Capa 2"><g id="Capa_2-2" data-name="Capa 2"><path class="cls-1" d="M15.19,17.27a13,13,0,0,0-11.82,3,10.72,10.72,0,0,0-2.86,11A10.31,10.31,0,0,0,9.17,38a9.15,9.15,0,0,0,6.38-1.52,7.28,7.28,0,0,0,2.7-4.8,15.79,15.79,0,0,0,.13-3.22c0-1.09-.07-2.19-1.15-2.78a7.69,7.69,0,0,0-3.66-.47A20.41,20.41,0,0,0,9,25.83c-.49.12-1.4.59-1.22,1.23s1.2.56,1.67.45a15.11,15.11,0,0,1,2.84-.43,5.91,5.91,0,0,1,2.65.14c.59.34.49,1.46.51,2.06a15.75,15.75,0,0,1-.08,2.17,6.34,6.34,0,0,1-1.48,3.76,4.52,4.52,0,0,1-4,.9C3.46,35,1,27.13,4.7,22.09A8.41,8.41,0,0,1,13.46,19a2.24,2.24,0,0,0,2-.55c.42-.45.33-1-.31-1.19Z"/><path class="cls-1" d="M26.89,18.7,22.64,39.61c-.24,1.17,2.69.72,2.91-.34l4.25-20.9c.24-1.17-2.69-.72-2.91.33Z"/><path class="cls-1" d="M27.77,20.14q4.61,8.31,10,16.17c.59.86,3.39-.12,2.68-1.17Q35.07,27.3,30.45,19c-.5-.89-3.31,0-2.68,1.16Z"/><path class="cls-1" d="M26.7,33.38h9.19a3.94,3.94,0,0,0,2-.55c.44-.28.42-.61-.16-.61H28.59a3.9,3.9,0,0,0-2.05.55c-.44.27-.42.61.16.61Z"/><path class="cls-1" d="M42.45,17.88l3.4,20c.09.53,3-.1,2.89-.78L45.35,17.11c-.09-.54-3,.09-2.9.77Z"/><path class="cls-1" d="M47.91,38.4l7.14-.58c.57,0,1.52-.4,1.63-1S55.85,36,55.39,36l-7.14.58c-.57,0-1.52.4-1.63,1s.83.79,1.29.75Z"/><path class="cls-1" d="M59.36,17.59q-.15,9.86.63,19.67c.1,1.31,3,.62,2.9-.77q-.75-9.54-.6-19.12c0-1.51-2.91-1.07-2.93.22Z"/><path class="cls-1" d="M61.7,37.38l7.66-.47c.58,0,1.52-.41,1.62-1.07s-.82-.8-1.29-.77L62,35.54c-.58,0-1.52.42-1.62,1.07s.82.8,1.29.77Z"/><path class="cls-1" d="M59.68,28.74a42.67,42.67,0,0,0,7.65-.6c.62-.11,1.51-.4,1.6-1.15s-.78-1-1.33-.91a43.53,43.53,0,0,1-7.65.6c-.61,0-1.52.48-1.6,1.15s.78.91,1.33.91Z"/><path class="cls-1" d="M59.39,20l11.23.59a3.61,3.61,0,0,0,2-.54c.46-.3.4-.62-.17-.65l-11.23-.59a3.7,3.7,0,0,0-2.05.55c-.45.3-.4.61.17.64Z"/><path class="cls-1" d="M76,19.44l2.87,18.33c.15,1,3.07.31,2.9-.78L78.9,18.66c-.15-1-3.07-.31-2.9.78Z"/><path class="cls-1" d="M78.28,19.05a6.28,6.28,0,0,1,4.37-.81,9.36,9.36,0,0,1,5,2.31c1.43,1.28,2.78,3.75.56,5a15,15,0,0,1-6.35,1.79,2.94,2.94,0,0,0-1.94.7c-.39.49.35.52.69.5A23.11,23.11,0,0,0,88,26.83c1.83-.76,4.77-1.88,4.27-4.37-.37-1.86-2.1-3.33-3.69-4.18A11.38,11.38,0,0,0,83,17a13.51,13.51,0,0,0-7,2c-.49.3-.35.62.17.67a3.6,3.6,0,0,0,2-.55Z"/><path class="cls-1" d="M79.47,29.14a103.6,103.6,0,0,1,14.34,9.19,2,2,0,0,0,1.91,0c.27-.11,1.31-.73.78-1.14a107,107,0,0,0-14.72-9.44,2.31,2.31,0,0,0-2,.28c-.41.24-.86.78-.26,1.1Z"/><path class="cls-1" d="M99.13,18.38q.25,9.72,1.26,19.39c0,.48,3-.05,2.9-.78q-1-9.66-1.26-19.39c0-.42-2.92,0-2.9.78Z"/><path class="cls-1" d="M105.54,4.87,108.68.33c.11-.17-.13-.27-.24-.3a2.2,2.2,0,0,0-.92,0,4.25,4.25,0,0,0-1.1.34,1.47,1.47,0,0,0-.6.44l-3.14,4.54c-.12.17.13.27.23.3a2.19,2.19,0,0,0,.92,0,4.32,4.32,0,0,0,1.11-.34,1.53,1.53,0,0,0,.6-.44Z"/><path class="cls-1" d="M115.05,17.67l-4.33,21.4c-.2,1,2.7.55,2.89-.39l4.33-21.4c.21-1-2.7-.55-2.89.39Z"/><path class="cls-1" d="M114.56,19.9a194.48,194.48,0,0,0,10.67,18.17c.56.85,3.37-.12,2.68-1.16a190.78,190.78,0,0,1-10.45-17.79c-.53-1-3.36-.11-2.9.78Z"/><path class="cls-1" d="M115.1,34.69l.4-.16-.08,0,.23-.09.71-.23q.81-.26,1.62-.45l.79-.17.37-.07c.17,0,.16,0,0,0l.19,0c.55-.09,1.11-.15,1.67-.2s1.56-.46,1.59-1.19-.73-1-1.35-1a25.62,25.62,0,0,0-7.41,1.77c-.53.21-1.12,1-.68,1.53a1.7,1.7,0,0,0,2,.24Z"/></g></g></svg>