<svg xmlns="http://www.w3.org/2000/svg" viewBox="0 0 188.66 48.19"><defs><style>.cls-1{fill:#fff;}</style></defs><g id="Capa_2" data-name="Capa 2"><g id="Capa_2-2" data-name="Capa 2"><path class="cls-1" d="M11.28,17.75a.7.7,0,0,0,.36.15s.14,0,.18,0a16.89,16.89,0,0,0,3.15.24,12.38,12.38,0,0,1,6.85,2.93,5.38,5.38,0,0,1,.43.45,11.06,11.06,0,0,1,1.21,1.15,10.73,10.73,0,0,1,2.33,4.5,10.61,10.61,0,0,1-.09,5.07,12.32,12.32,0,0,1-5.64,7.4,11.15,11.15,0,0,1-4.59,1.5,10.57,10.57,0,0,1-6-1.22,8.76,8.76,0,0,1-1.27-.8A10.89,10.89,0,0,1,7,38.21a13.19,13.19,0,0,1-2.94-3.87A11.58,11.58,0,0,1,2.92,28a9.49,9.49,0,0,1,2.52-5.2,17.52,17.52,0,0,1,4.66-3.42A12.55,12.55,0,0,1,14.28,18a6.13,6.13,0,0,1,.94-.1c.31,0,.63-.06.94,0,.48,0,.87,0,.94-.14s.31-.43.12-.68a9.53,9.53,0,0,0-.63-.72,3.2,3.2,0,0,0-1-.68,2.55,2.55,0,0,0-1.49-.21,13.87,13.87,0,0,0-2.05.3,26.28,26.28,0,0,0-4.65,1.53,11.38,11.38,0,0,0-5,4.32A15,15,0,0,0,0,29.08a14.13,14.13,0,0,0,3.24,9.36,21.7,21.7,0,0,0,1.48,1.7c.31.29.63.57,1,.85a14.92,14.92,0,0,0,3.6,2.11A12.83,12.83,0,0,0,14,44.2a12.79,12.79,0,0,0,3.21-.35,14.71,14.71,0,0,0,4.47-1.77,14.38,14.38,0,0,0,6.94-11,12.94,12.94,0,0,0-.95-5.93,14.18,14.18,0,0,0-3.39-4.91,15,15,0,0,0-7.59-3.94,14.59,14.59,0,0,0-1.76-.22,11,11,0,0,0-1.73.09l-1.1.19c-.09,0-.85.19-.52.43,0,0,.1,0,.13.1a1.82,1.82,0,0,1-.69.4c-.27.12.16.4.26.49"/><path class="cls-1" d="M171.28,19.09a.67.67,0,0,0,.36.15s.14,0,.18,0a17.79,17.79,0,0,0,3.15.24,12.38,12.38,0,0,1,6.85,2.93,5.38,5.38,0,0,1,.43.45,10.12,10.12,0,0,1,1.2,1.15,10.29,10.29,0,0,1,2.25,9.57,12.35,12.35,0,0,1-5.64,7.4,11.15,11.15,0,0,1-4.59,1.5,10.57,10.57,0,0,1-6-1.22,9.44,9.44,0,0,1-1.28-.8,10.65,10.65,0,0,1-1.17-1,13,13,0,0,1-2.94-3.86,11.59,11.59,0,0,1-1.14-6.37,9.49,9.49,0,0,1,2.52-5.2,17.31,17.31,0,0,1,4.66-3.42,12.55,12.55,0,0,1,4.18-1.38,6.13,6.13,0,0,1,.94-.1c.31,0,.63-.06.94,0,.48,0,.87,0,.94-.14s.31-.44.12-.68a7.91,7.91,0,0,0-.63-.72,3.4,3.4,0,0,0-1-.69,2.65,2.65,0,0,0-1.49-.2,13.87,13.87,0,0,0-2,.3,26.28,26.28,0,0,0-4.65,1.53,11.3,11.3,0,0,0-4,3,12.16,12.16,0,0,0-1,1.35A15,15,0,0,0,160,30.42a14.13,14.13,0,0,0,3.24,9.36,21.7,21.7,0,0,0,1.48,1.7c.31.29.63.57,1,.85a15.25,15.25,0,0,0,3.6,2.11,12,12,0,0,0,7.92.75,15,15,0,0,0,4.47-1.77,14.38,14.38,0,0,0,6.94-11,13.07,13.07,0,0,0-1-5.93,14.32,14.32,0,0,0-3.39-4.91,15.06,15.06,0,0,0-7.59-3.95,16.92,16.92,0,0,0-1.76-.21,12.31,12.31,0,0,0-1.73.08l-1.1.19c-.09,0-.85.2-.53.43.05,0,.11.06.14.11a1.82,1.82,0,0,1-.69.4c-.27.12.16.4.26.49"/><path class="cls-1" d="M41.7,47.17A.51.51,0,0,0,42,47s0-.06.1-.08a1.4,1.4,0,0,0,.44-1.41c-.08-1.11-.16-2.22-.22-3.33a.74.74,0,0,1,0-.28,6.69,6.69,0,0,1-.16-.72c-.22-1.5-.38-3-.64-4.51a30.86,30.86,0,0,1-.43-4.07c0-.71,0-1.42-.08-2.12-.06-.91-.15-1.82-.22-2.72,0-.44,0-.88,0-1.31,0-.71-.06-1.42-.08-2.12,0-1,0-2-.12-2.92-.22-1.67.45-3.64.14-5.29-.13-.67-.33-1.32-.5-2-.08-.29-.18-.56-.28-.83s-.22-.37-.38-.37a1.83,1.83,0,0,0-.81.07,6.78,6.78,0,0,0-1.36.81.57.57,0,0,0-.2.57c0,.25.05.5.09.75.19,1.11-.59,2.54-.41,3.65,0,.2.06.4.1.6a12.53,12.53,0,0,1,.29,2.81,35.68,35.68,0,0,0,.05,3.58c0,.26,0,.53,0,.8a3.38,3.38,0,0,0,0,.45c0,.49.09,1,.12,1.46s0,1.12.06,1.67c0,.37.13.73.16,1.1,0,.56,0,1.11.08,1.67a18.44,18.44,0,0,0,.81,4.7,26.73,26.73,0,0,1,1,4.29c.16,1.07.28,2.14.42,3.21a9,9,0,0,0,.22,1.3c0,.13.07.27.12.4s0,.33.37.2a.75.75,0,0,1,.16,0,.51.51,0,0,1,.3.27c.07.11.5-.05.63-.1"/><path class="cls-1" d="M34.24,4.45a1.53,1.53,0,0,0,.14-.23l0-.09c.27-.46.21-.53.13-.59l-.44-.38a.14.14,0,0,1,0-.09c-.06,0-.13,0-.17,0a5.78,5.78,0,0,0-.8-.25,1,1,0,0,1-.63-.35c-.09-.09-.16-.21-.25-.29S32,2,31.9,1.89a1.33,1.33,0,0,1-.14-.19l-.25-.29c-.11-.14-.18-.34-.34-.4s-.07-1-.41-1a2.14,2.14,0,0,0-.48.07A1.77,1.77,0,0,0,30,.15a.87.87,0,0,0-.26.24c-.16.22-.35.44-.48.66-.26.41-.52.81-.74,1.21-.08.15-.12.25-.07.26l.13,0c.21,0-.13.9.09.94a.45.45,0,0,0,.11,0,.43.43,0,0,1,.44.24,1.41,1.41,0,0,0,.35.57s0,.1.07.15,0,.06,0,.07l.21.16a1.37,1.37,0,0,0,.19.23c.05,0,.14,0,.19.06a2.18,2.18,0,0,1,.21.22.85.85,0,0,0,.92.15,1.74,1.74,0,0,1,1-.07c.2.06.37.15.56.21a.39.39,0,0,0,.25,0l.1,0s.05,0,.25-.27l.09-.13a.66.66,0,0,1,.2-.19,5.56,5.56,0,0,0,.37-.52"/><path class="cls-1" d="M158.19,6.09c.1.11.15.15.19.19a.21.21,0,0,1,.08.07c.39.36.47.32.54.26a5.85,5.85,0,0,1,.48-.34s.06,0,.08,0a.57.57,0,0,1,0-.16,6.59,6.59,0,0,0,.44-.72,1,1,0,0,1,.48-.55,3.54,3.54,0,0,0,.34-.16l.37-.31c.06,0,.15-.06.22-.1s.22-.12.34-.17.37-.09.47-.24,1,.16,1.07-.16a2.38,2.38,0,0,0,.05-.49,1.3,1.3,0,0,0,0-.26.69.69,0,0,0-.17-.31c-.17-.21-.35-.44-.53-.62-.33-.34-.67-.69-1-1-.12-.11-.21-.17-.23-.12s-.06.06-.08.11-.85-.33-.94-.13c0,0,0,.06,0,.1-.05.2-.14.34-.34.37a1.35,1.35,0,0,0-.63.22s-.11,0-.17,0l-.08,0a1.56,1.56,0,0,1-.2.16c-.08.06-.19.08-.26.14s-.06.13-.11.17a1.1,1.1,0,0,1-.26.15.85.85,0,0,0-.35.87,1.76,1.76,0,0,1-.17,1c-.1.17-.22.32-.33.49a.33.33,0,0,0-.1.23s0,.07,0,.11,0,0,.21.3c0,0,.06.06.1.12a.62.62,0,0,1,.14.24c0,.06.33.38.42.48"/><path class="cls-1" d="M54.11,45.62a.5.5,0,0,0,.34-.06s.09-.07.15-.06c.74-.23,1.21-1,1.7-1.73,1-1.62,2.15-3.18,3.32-4.72a3.56,3.56,0,0,1,.35-.34c.23-.38.44-.73.69-1.07,1.53-2.14,3.2-4.2,4.87-6.23.84-1,1.74-2,2.65-3l2.91-3.07L67,26.42c-.48.13-1,.27-1.44.37s-1,.19-1.47.22a15.57,15.57,0,0,1-3.42-.1,10.56,10.56,0,0,1-4-1.35,7,7,0,0,1-1.53-1.24,6.11,6.11,0,0,1-1.52-2.58,5.4,5.4,0,0,1-.09-2,7.22,7.22,0,0,1,.6-1.88,6.37,6.37,0,0,1,2.76-2.67c1.2-.68,2.51-1.19,3.71-1.79L62,12.71,63.53,12l1.34-.55c.34-.14.59-.33.58-.49s0-.59-.19-.8a5.29,5.29,0,0,0-1.51-1.09,1.29,1.29,0,0,0-1,0l-1.33.44c-1,.37-2.1.57-3.24.89A9.26,9.26,0,0,0,55,11.88a11.17,11.17,0,0,0-.92.78,13.79,13.79,0,0,0-3.44,4.75A8,8,0,0,0,50,21.34a8.41,8.41,0,0,0,1.36,3.8,13.3,13.3,0,0,0,1,1.43,6.61,6.61,0,0,0,.7.7,10.57,10.57,0,0,0,1.26,1,15.1,15.1,0,0,0,1.35.77A14,14,0,0,0,59,30.21a17,17,0,0,0,2.24.23,19.82,19.82,0,0,0,3.36,0c.59-.06,1.17-.19,1.74-.29s1.11-.29,1.64-.44l-2.17-3.61a35.5,35.5,0,0,0-3.38,4.22c-1.46,2.09-2.94,4.24-4.46,6.43-1.1,1.58-2.2,3.17-3.21,4.81a19.88,19.88,0,0,0-1.15,2l-.32.68c0,.07-.3.51.11.53a1,1,0,0,1,.17,0,.92.92,0,0,1,0,.6c0,.21.46.22.6.23"/><path class="cls-1" d="M75.23,45.36a.48.48,0,0,0,.22-.2.18.18,0,0,1,.07-.1,1.56,1.56,0,0,0,.17-1.57c-.3-1.16-.58-2.32-.86-3.49a1.07,1.07,0,0,1,0-.31,6.26,6.26,0,0,1-.3-.73c-.5-1.56-1-3.14-1.5-4.68A39.35,39.35,0,0,1,71.82,30c-.16-.75-.3-1.5-.48-2.24-.24-.95-.5-1.9-.74-2.85-.11-.46-.19-.92-.29-1.38-.16-.75-.33-1.49-.49-2.24-.22-1-.37-2.08-.68-3.07-.54-1.73-.25-3.94-.87-5.64-.26-.69-.58-1.34-.88-2-.13-.29-.29-.56-.44-.83s-.28-.36-.44-.33a1.75,1.75,0,0,0-.79.21,6.63,6.63,0,0,0-1.18,1.08.61.61,0,0,0-.09.64c.08.26.15.53.24.78.4,1.15-.1,2.79.29,3.94.08.2.13.41.21.62A13.85,13.85,0,0,1,66,19.65c.2,1.26.42,2.53.73,3.79a7.93,7.93,0,0,1,.14.85,4,4,0,0,0,.09.48c.13.51.27,1,.39,1.53s.24,1.18.39,1.76c.1.38.26.75.36,1.14.15.58.27,1.17.4,1.75a21.47,21.47,0,0,0,1.71,4.85A31.21,31.21,0,0,1,72,40.18c.36,1.11.69,2.23,1,3.34a10.07,10.07,0,0,0,.46,1.34c.06.13.12.27.19.41a.25.25,0,0,0,.41.15l.14-.09a.53.53,0,0,1,.35.25c.09.1.49-.14.61-.22"/><path class="cls-1" d="M135.37,47.34a.5.5,0,0,0,0-.34s0-.1,0-.16A3.62,3.62,0,0,0,134,44.79q-2.06-2-4-4.2a2.38,2.38,0,0,1-.26-.4c-.32-.31-.63-.58-.91-.89a55.88,55.88,0,0,1-4.9-6,23.23,23.23,0,0,1-1.29-2L121.24,33a22.77,22.77,0,0,0,5,.74,13.33,13.33,0,0,0,4.06-.45A11.87,11.87,0,0,0,135,30.71c.34-.28.64-.61,1-.92s.58-.67.83-1a9.36,9.36,0,0,0,1.59-4.08,9,9,0,0,0-1.2-5.9,20,20,0,0,0-3.35-4.14,13.88,13.88,0,0,0-4.33-2.73c-.62-.2-1.24-.37-1.86-.54L125.77,11c-.53-.1-1.06-.13-1.58-.18s-.73,0-.79.17-.27.52-.15.8a7.75,7.75,0,0,0,.85,1.67,1.39,1.39,0,0,0,.85.46l1.25.35c1.87.51,3.54,2.26,5,3.17a6.1,6.1,0,0,1,.77.52,6.87,6.87,0,0,1,2.64,3.16,6.35,6.35,0,0,1-.07,4.64,4,4,0,0,1-.56.9,3.34,3.34,0,0,1-.36.48,7.14,7.14,0,0,1-1.4,1.4,9.06,9.06,0,0,1-2.08,1.06c-.23.11-.49.18-.74.28a3.82,3.82,0,0,1-.77.23l-.6.11-.62.05c-.4,0-.83,0-1.24,0a22.85,22.85,0,0,1-4-.53l-4.86-1,2.38,4A20.65,20.65,0,0,0,122.07,36c1.74,2,3.53,3.86,5.36,5.78,1.32,1.4,2.67,2.78,4.07,4.09a20.67,20.67,0,0,0,1.73,1.55l.6.45s.43.4.54,0a1.09,1.09,0,0,1,0-.17.89.89,0,0,1,.58.16c.19.09.32-.4.37-.54"/><path class="cls-1" d="M114.22,48.19a.45.45,0,0,0,.28-.07s.06,0,.12,0c.61-.22.77-.74.92-1.29.31-1.16.64-2.31,1-3.46a1,1,0,0,1,.15-.27,6.31,6.31,0,0,1,.1-.79c.33-1.61.71-3.21,1-4.81a36.86,36.86,0,0,1,1-4.3c.22-.73.47-1.45.68-2.19.26-.94.5-1.9.76-2.84.12-.46.28-.9.42-1.35.23-.73.44-1.46.67-2.19.31-1,.71-2,.93-3,.38-1.78,1.71-3.56,2-5.35.12-.73.16-1.45.23-2.18,0-.32,0-.63,0-.95s-.07-.44-.22-.5a1.66,1.66,0,0,0-.8-.2,6.05,6.05,0,0,0-1.56.36.62.62,0,0,0-.39.51c-.05.27-.13.53-.18.8-.21,1.2-1.46,2.38-1.67,3.58,0,.21-.09.42-.12.64a14.69,14.69,0,0,1-.72,3c-.45,1.2-.89,2.41-1.23,3.66-.07.28-.21.54-.3.81a4.34,4.34,0,0,0-.16.47c-.14.51-.26,1-.41,1.53s-.37,1.14-.53,1.72c-.1.38-.14.78-.24,1.17-.15.58-.35,1.15-.52,1.73a21.59,21.59,0,0,0-.89,5.06A30.32,30.32,0,0,1,114,42.1c-.23,1.14-.5,2.28-.74,3.42a9.66,9.66,0,0,0-.25,1.39c0,.15,0,.3,0,.46s-.09.34.28.32h.17a.52.52,0,0,1,.18.38c0,.14.5.12.64.12"/><path class="cls-1" d="M93.62,19.64a.53.53,0,0,0,.19.25s.07,0,.09.1a2.55,2.55,0,0,0,1.53.68,6.81,6.81,0,0,1,3.25,2,1.19,1.19,0,0,1,.15.3,3.57,3.57,0,0,1,.61.62,6.93,6.93,0,0,1,1.23,2.4,5.71,5.71,0,0,1,.2,2.59,4.4,4.4,0,0,1-.89,2.15,4.87,4.87,0,0,1-.83.87,5.56,5.56,0,0,1-1.05.64,7.33,7.33,0,0,1-2.49.69,7.79,7.79,0,0,1-3.3-.26l-.72-.3L90.94,32a5.5,5.5,0,0,1-1.59-1.71,5.53,5.53,0,0,1-.51-3.09,4.64,4.64,0,0,1,1.3-2.69,16.89,16.89,0,0,1,2.15-1.88,6.12,6.12,0,0,1,1.76-1.06,6.32,6.32,0,0,1,.85-.24.56.56,0,0,0,.47-.32,1.45,1.45,0,0,0,.11-.81,3.54,3.54,0,0,0-.94-1.48,1.24,1.24,0,0,0-1-.15,8.5,8.5,0,0,0-1.25.33,25.83,25.83,0,0,0-2.82,1.18,6,6,0,0,0-2.35,2c-.18.3-.35.61-.5.92a13.16,13.16,0,0,0-1.22,4.74,7.54,7.54,0,0,0,2.3,6.05,11.76,11.76,0,0,0,1.11,1,4.46,4.46,0,0,0,.71.45l.6.32.63.24a7.38,7.38,0,0,0,1.27.38,10.93,10.93,0,0,0,3,.35,8,8,0,0,0,1-.12c.32,0,.64-.12,1-.2a11,11,0,0,0,1.44-.39,8.92,8.92,0,0,0,1.39-.59,8.35,8.35,0,0,0,3.29-3,7.36,7.36,0,0,0,1-4.23,10,10,0,0,0-.93-3.59,11.5,11.5,0,0,0-2-3,10,10,0,0,0-4.25-2.9,6,6,0,0,0-2.09-.34,3.09,3.09,0,0,0-.67.06c-.06,0-.52,0-.34.37,0,.06,0,.09.07.16a.67.67,0,0,1-.42.29c-.15.07.08.51.14.64"/><path class="cls-1" d="M149.47,48a.64.64,0,0,0,.27-.11.16.16,0,0,1,.1-.07,1.29,1.29,0,0,0,.61-1.28c.05-1.05.11-2.1.18-3.16a1.05,1.05,0,0,1,.08-.25c0-.25-.07-.47-.07-.7,0-1.44,0-2.89-.09-4.32a29.54,29.54,0,0,1,0-3.88c.06-.67.14-1.34.18-2,.05-.86.07-1.72.11-2.59,0-.41.08-.82.12-1.23.06-.67.1-1.34.17-2,.08-.92.24-1.84.23-2.76,0-1.6.88-3.37.77-5,0-.65-.16-1.28-.26-1.92a6.83,6.83,0,0,0-.18-.81c-.05-.21-.17-.38-.33-.4a1.9,1.9,0,0,0-.82,0,7,7,0,0,0-1.44.59.51.51,0,0,0-.26.52c0,.24,0,.48,0,.72.05,1.07-.9,2.32-.85,3.38,0,.19,0,.38,0,.58A10.85,10.85,0,0,1,148,24a31.77,31.77,0,0,0-.38,3.38,6.5,6.5,0,0,1-.12.75c0,.14,0,.29-.05.43,0,.46,0,.93-.06,1.39s-.11,1.05-.13,1.58c0,.35,0,.7,0,1,0,.53-.08,1.05-.12,1.58a16.65,16.65,0,0,0,.25,4.52,23.76,23.76,0,0,1,.47,4.15c0,1,0,2.05,0,3.07a7.38,7.38,0,0,0,.06,1.25c0,.13,0,.26.07.39s0,.32.35.23l.16,0a.47.47,0,0,1,.26.3c.06.11.51,0,.64,0"/></g></g></svg>