<svg xmlns="http://www.w3.org/2000/svg" viewBox="0 0 152.92 21.87"><defs><style>.cls-1{fill:#fff;}</style></defs><g id="Capa_2" data-name="Capa 2"><g id="Capa_2-2" data-name="Capa 2"><path class="cls-1" d="M0,1.64V21.56c0,.5,2.9.08,2.9-.78V.87C2.9.36,0,.78,0,1.64Z"/><path class="cls-1" d="M2.22,1.92C5,1.57,8,1.51,10.07,3.71a4.46,4.46,0,0,1,1.27,3.38,4,4,0,0,1-2,2.9,2,2,0,0,1-.66.29,6.31,6.31,0,0,1-.87.2,23.78,23.78,0,0,1-2.67.17,3,3,0,0,0-1.94.7c-.42.49.38.52.7.51a17.82,17.82,0,0,0,6.19-1A6.79,6.79,0,0,0,13.9,7.66a4.32,4.32,0,0,0-.54-4.27A6.69,6.69,0,0,0,9.51.84,17.87,17.87,0,0,0,2.75.8a3.35,3.35,0,0,0-1.11.35c-.13.06-.54.27-.59.46-.12.52,1,.34,1.17.31Z"/><path class="cls-1" d="M21.65,2,18.73,20.34c-.15.91,2.74.4,2.87-.44L24.52,1.58c.15-.91-2.74-.4-2.87.43Z"/><path class="cls-1" d="M22.93,1.16,32.87,21c.46.92,3.27,0,2.9-.77L25.83.38c-.46-.92-3.27,0-2.9.78Z"/><path class="cls-1" d="M22.77,15.6h7.15c.63,0,1.52-.49,1.59-1.18s-.77-.95-1.34-.95H23c-.63,0-1.52.48-1.59,1.17s.77,1,1.34,1Z"/><path class="cls-1" d="M39.07,2.12a146.89,146.89,0,0,1,1.25,19.44c0,.67,2.89.2,2.9-.78A148.72,148.72,0,0,0,42,1.34c-.1-.76-3-.14-2.9.78Z"/><path class="cls-1" d="M40.64,2.19c3-.21,6.34-.33,8.44,2.15a4.29,4.29,0,0,1,1.09,3.59,3.4,3.4,0,0,1-.77,1.54,4.07,4.07,0,0,1-.53.46c-.12.09,0,0,0,0l-.17.1-.23.13c-.2.11.17-.07,0,0l-.45.19s-.27.09,0,0l-.27.08-.21,0s-.31.07-.15,0l-.16,0-.28,0-.5.06c-.29,0-.13,0-.07,0H46c-.38,0-.75,0-1.13,0a2.42,2.42,0,0,0-1.92.77c-.4.57.35.76.77.78,3.12.19,7.39-.64,8.94-3.71A4.58,4.58,0,0,0,52.32,4a7.12,7.12,0,0,0-4.25-3,20.38,20.38,0,0,0-7-.3c-.51,0-1.53.36-1.66.94s.9.58,1.24.56Z"/><path class="cls-1" d="M42.12,12.32A45.33,45.33,0,0,1,53.93,20a1.88,1.88,0,0,0,1.93.07c.33-.14,1.26-.77.75-1.23a47.23,47.23,0,0,0-12.2-8,2.3,2.3,0,0,0-2,.25c-.39.25-.89.92-.24,1.22Z"/><path class="cls-1" d="M58,2.78H72.8c.61,0,1.53-.47,1.6-1.14S73.62.75,73.08.75H58.27c-.61,0-1.53.47-1.6,1.14s.78.89,1.32.89Z"/><path class="cls-1" d="M64.47,3.15a62.2,62.2,0,0,1,1.38,17.21c-.06,1,2.83.39,2.88-.43A63.16,63.16,0,0,0,67.37,2.37c-.19-.83-3.1-.11-2.9.78Z"/><path class="cls-1" d="M79.57,1.65,81.29,21c.1,1.14,3,.48,2.89-.78L82.46.87c-.1-1.13-3-.47-2.89.78Z"/><path class="cls-1" d="M102,.81c-4.89-.82-10.25,2.11-11.61,7S91.91,18,96.49,20a14.59,14.59,0,0,0,8.85.8c.48-.1,1.4-.58,1.24-1.2s-1.21-.51-1.67-.42a10,10,0,0,1-11.7-7.3A8.13,8.13,0,0,1,94.56,5a6.16,6.16,0,0,1,5.66-2.47,2.35,2.35,0,0,0,2-.55c.39-.41.35-1-.31-1.14Z"/><path class="cls-1" d="M111.32,2.66V20.54c0,.67,2.9.19,2.9-.78V1.89c0-.67-2.9-.2-2.9.77Z"/><path class="cls-1" d="M120.24,1.63,121.33,20c0,.65,3,.13,2.9-.78L123.14.85c0-.65-3-.13-2.9.78Z"/><path class="cls-1" d="M121.43,2.09c2,.2,4.13-.16,6.14.26A4.66,4.66,0,0,1,131,4.87a3.24,3.24,0,0,1-1.23,3.75,4.52,4.52,0,0,1-1.92.75,19,19,0,0,1-2.82.19,2.27,2.27,0,0,0-1.9.82c-.34.57.29.95.81.94,3.48-.07,8-.46,9.75-4.08A4,4,0,0,0,133.27,3a6.89,6.89,0,0,0-4-2.28c-2.24-.47-4.54-.12-6.8-.35a2.16,2.16,0,0,0-1.9.82c-.37.61.31.89.81.94Z"/><path class="cls-1" d="M140.09,2a107.39,107.39,0,0,1-2.83,18.35c-.26,1.1,2.66.67,2.91-.35A108.22,108.22,0,0,0,143,1.6c.08-1.21-2.84-.66-2.9.35Z"/><path class="cls-1" d="M141.28,2.31q4.59,8.5,8.69,17.28a1.4,1.4,0,0,0,1.73.68c.5-.13,1.48-.78,1.16-1.46q-4.2-9-8.93-17.82c-.67-1.23-3.4-.09-2.65,1.32Z"/><path class="cls-1" d="M140.36,16.61a21.75,21.75,0,0,0,7.41-.53c.55-.14,1.41-.72,1.18-1.41s-1.11-.78-1.73-.63l-.8.19-.43.08c-.33.06.25,0-.1,0-.52.07-1,.14-1.57.17s-1,.05-1.58.05.29,0-.13,0l-.38,0-.88-.07a1.84,1.84,0,0,0-1.88.89.93.93,0,0,0,.89,1.26Z"/></g></g></svg>