<svg xmlns="http://www.w3.org/2000/svg" viewBox="0 0 176.8 23.39"><defs><style>.cls-1{fill:#fff;}</style></defs><g id="Capa_2" data-name="Capa 2"><g id="Capa_2-2" data-name="Capa 2"><path class="cls-1" d="M7.78,1.57a5.33,5.33,0,0,0-6,1.85C.39,5.29.24,8.11.06,10.34c-.34,4.22.6,9.49,5,11.4A9.08,9.08,0,0,0,15.61,19a15.08,15.08,0,0,0,2.23-6.84A9.69,9.69,0,0,0,16.67,6,10.6,10.6,0,0,0,5.41,1.26C5,1.35,4,1.8,4.16,2.4s1.23.44,1.65.36c2.68-.54,5.55,1.05,7.24,3,2.39,2.79,2.21,6.34,1.28,9.7-.43,1.59-1,3.33-2.34,4.37a4.5,4.5,0,0,1-3.31.84C5.46,20.27,3.61,17,3.1,14.1a20.92,20.92,0,0,1,.17-6.7A12.65,12.65,0,0,1,4,4.35c.24-.53.8-1.63,1.51-1.36a2.33,2.33,0,0,0,2.05-.26c.35-.23.91-.9.24-1.16Z"/><path class="cls-1" d="M10.08,14.83l9.36,7.45c1,.77,3.53-.62,2.25-1.64L12.33,13.2c-1-.77-3.53.61-2.25,1.63Z"/><path class="cls-1" d="M24.81,2.37a21.78,21.78,0,0,0,.38,9,17.67,17.67,0,0,0,4,7.84c1.94,2,4.73,3,7.38,1.8s3.17-3.84,3.21-6.43c.06-4,0-8.06,0-12.1,0-1.23-2.89-.63-2.9.36v9.06c0,2.2.38,5.11-.81,7.1-.49.83-.89,1-1.77.72a6.83,6.83,0,0,1-2.81-2.06,17.34,17.34,0,0,1-3.34-6.77A20.86,20.86,0,0,1,27.71,2c.2-1.15-2.73-.67-2.9.35Z"/><path class="cls-1" d="M45.25,2.32A71.78,71.78,0,0,1,57.32,1.2a3.75,3.75,0,0,0,2-.54C59.78.37,59.8,0,59.2,0A78.34,78.34,0,0,0,45.78,1.22c-.41.08-1.58.3-1.7.8s1,.34,1.17.3Z"/><path class="cls-1" d="M44.89,3.08l1,18.39c.07,1.18,3,.53,2.9-.78l-1-18.39c-.06-1.18-3-.53-2.9.78Z"/><path class="cls-1" d="M46.6,22.05l11.74.64a3.64,3.64,0,0,0,2-.55c.46-.29.4-.59-.17-.62l-11.74-.64a3.64,3.64,0,0,0-2,.55c-.46.29-.4.59.17.62Z"/><path class="cls-1" d="M46.37,12.89H57.61c.61,0,1.52-.47,1.6-1.14s-.79-.89-1.32-.89H46.65c-.61,0-1.52.47-1.6,1.14s.79.89,1.32.89Z"/><path class="cls-1" d="M86.48,3.44A8.07,8.07,0,0,0,78.64,3C76.45,4,73.92,6.62,75,9.28c.56,1.44,2,1.87,3.45,2a13.48,13.48,0,0,1,4.49.75c2.26.92,6.08,3.58,4.57,6.52-.34.68-.93.78-1.63.9a18.62,18.62,0,0,1-2.89.29,20.22,20.22,0,0,1-6-.79,2.29,2.29,0,0,0-2,.55.64.64,0,0,0,.31,1.15,23.7,23.7,0,0,0,10.56.52c1.6-.29,3.3-.77,4.25-2.2a4.21,4.21,0,0,0,.33-3.87c-1.16-2.82-4.43-4.58-7.26-5.24a14.31,14.31,0,0,0-2.35-.34,6.53,6.53,0,0,1-2.12-.17c-1.22-.51-1.06-2.23-.57-3.19,1.19-2.36,4.14-2.6,6.14-1.18.86.6,3.5-.63,2.29-1.49Z"/><path class="cls-1" d="M102.87,2.65c-4.48-.54-8,2.81-8.71,7.06-.65,4.09,1,8.65,5,10.34a9.73,9.73,0,0,0,11.41-3.38c2.36-3.26,2.71-8.16.09-11.38-3-3.62-8.27-3.83-12.15-1.67-.5.28-.34.58.16.62a3.87,3.87,0,0,0,2-.55,4.47,4.47,0,0,1,3.37,0,7.93,7.93,0,0,1,3.51,2.22,8.91,8.91,0,0,1,1.37,9,9.2,9.2,0,0,1-2.79,4,3.61,3.61,0,0,1-3.59.5A8.22,8.22,0,0,1,97,12.14a10.28,10.28,0,0,1,.77-5.48,7.5,7.5,0,0,1,1.39-2.08,7.52,7.52,0,0,1,.93-.76.61.61,0,0,1,.16-.09c-.15,0,.06,0,.24,0a3.86,3.86,0,0,0,2-.37c.19-.1,1-.65.36-.74Z"/><path class="cls-1" d="M120.2,20.88l.42-17.26-2.79.74L127,12a2.22,2.22,0,0,0,2.69-.54l5.91-8.87L132.83,3l3.4,19.94c.16.94,3.07.26,2.9-.78l-3.4-19.94c-.18-1-2.48-.11-2.8.38L127,11.47l2.69-.54-9.19-7.68c-.55-.47-2.77-.19-2.79.74l-.42,17.27c0,1.15,2.87.54,2.89-.38Z"/><path class="cls-1" d="M152.44,2.43c-4.66-1.57-9.29,1.66-11,5.94-1.56,4-1.76,9.18,2,12a10,10,0,0,0,10.93.23,11.16,11.16,0,0,0,4.85-10.24A8.11,8.11,0,0,0,156,4a10.67,10.67,0,0,0-7.26-1.31c-.62.08-1.52.43-1.6,1.17s.77,1,1.34.94a8.19,8.19,0,0,1,4.79.56,5.85,5.85,0,0,1,2.85,4.21,9.62,9.62,0,0,1-2.24,8.54,6.09,6.09,0,0,1-7,1.24c-3.25-1.47-3.88-5-3.31-8.18s3.07-8.19,7.2-6.8a2,2,0,0,0,2.05-.55.83.83,0,0,0-.37-1.39Z"/><path class="cls-1" d="M173,2a9.38,9.38,0,0,0-7.39,1.49,8.38,8.38,0,0,0-2.52,2.71c-.6,1.07-1.12,2.52,0,3.45s2.89,1.13,4.29,1.29a16.19,16.19,0,0,1,4,.68A3.78,3.78,0,0,1,173.77,14,3.52,3.52,0,0,1,173,17c-2.09,2.64-5.94,1.28-8.61.48a2.23,2.23,0,0,0-2.05.55.66.66,0,0,0,.32,1.18c3,.91,6.29,1.71,9.4.64,2.24-.77,4.54-2.8,4.72-5.31.19-2.66-2.08-4.3-4.41-4.94A34.41,34.41,0,0,0,168,9a7.47,7.47,0,0,1-2-.51c-.77-.37-.7-1-.4-1.69a5.13,5.13,0,0,1,5.7-3.13,2.29,2.29,0,0,0,2-.55A.66.66,0,0,0,173,2Z"/></g></g></svg>