<svg xmlns="http://www.w3.org/2000/svg" viewBox="0 0 175.8 22.35"><defs><style>.cls-1{fill:#fff;}</style></defs><g id="Capa_2" data-name="Capa 2"><g id="Capa_2-2" data-name="Capa 2"><path class="cls-1" d="M7.78.53a5.33,5.33,0,0,0-6,1.85C.39,4.25.24,7.07.06,9.3c-.34,4.23.6,9.49,5,11.41A9.08,9.08,0,0,0,15.61,18a15,15,0,0,0,2.23-6.84,9.69,9.69,0,0,0-1.17-6.2A10.6,10.6,0,0,0,5.41.22C5,.31,4,.77,4.16,1.36s1.23.44,1.65.36c2.68-.53,5.55,1.05,7.24,3,2.39,2.8,2.21,6.34,1.28,9.7-.43,1.59-1,3.33-2.34,4.38a4.49,4.49,0,0,1-3.31.83C5.46,19.23,3.61,16,3.1,13.06a20.93,20.93,0,0,1,.17-6.7A12.76,12.76,0,0,1,4,3.31c.24-.53.8-1.63,1.51-1.35a2.37,2.37,0,0,0,2.05-.27c.35-.22.91-.9.24-1.16Z"/><path class="cls-1" d="M10.08,13.79l9.36,7.45c1,.77,3.53-.62,2.25-1.64l-9.36-7.44c-1-.77-3.53.62-2.25,1.63Z"/><path class="cls-1" d="M23.81,2.33a21.78,21.78,0,0,0,.38,9,17.67,17.67,0,0,0,4,7.84c1.94,2,4.73,3,7.38,1.8s3.17-3.83,3.21-6.42c.06-4,0-8.07,0-12.1,0-1.23-2.89-.63-2.9.35v9.06c0,2.2.38,5.12-.81,7.1-.49.83-.89,1-1.77.73a6.86,6.86,0,0,1-2.81-2.07,17.27,17.27,0,0,1-3.34-6.77A20.85,20.85,0,0,1,26.71,2c.2-1.15-2.73-.67-2.9.35Z"/><path class="cls-1" d="M43.89,3l1,18.39c.07,1.18,3,.53,2.9-.78l-1-18.38c-.06-1.19-3-.54-2.9.77Z"/><path class="cls-1" d="M44.88,12l10.76-.26a4.12,4.12,0,0,0,2-.55c.42-.28.42-.64-.17-.63l-10.75.26a4.06,4.06,0,0,0-2.05.55c-.43.28-.43.64.16.63Z"/><path class="cls-1" d="M46.42,21.57H57.65c.61,0,1.52-.47,1.61-1.14s-.79-.89-1.33-.89H46.7c-.61,0-1.53.47-1.61,1.14s.79.89,1.33.89Z"/><path class="cls-1" d="M85.48,3.4c-3-2.09-7.5-1.39-10,1.07a4.81,4.81,0,0,0-1.56,4.58A2.66,2.66,0,0,0,76,10.91a48,48,0,0,1,6.46,1.82c2.15.89,4.86,2.49,4.14,5.26-.26,1-.86,1.22-1.8,1.37a11.16,11.16,0,0,1-2.83.12,9.06,9.06,0,0,1-5.58-2.37c-.8-.76-3.54.36-2.68,1.18,2.82,2.69,7,3.44,10.74,2.84,2.07-.32,4.31-1,5-3.25A4.41,4.41,0,0,0,88.76,14c-1.55-2.06-4.43-3-6.8-3.7-1.12-.33-2.25-.59-3.38-.86l-1-.25c-.18-.05-.4-.23-.14,0A1.63,1.63,0,0,1,77,8.78c-1-1.48.26-3.6,1.62-4.34a4.32,4.32,0,0,1,4.55.45c.86.61,3.5-.63,2.29-1.49Z"/><path class="cls-1" d="M101.87,2.62c-4.48-.55-8,2.81-8.71,7.06-.65,4.09,1,8.64,5,10.33a9.73,9.73,0,0,0,11.41-3.38c2.36-3.25,2.71-8.16.09-11.37-3-3.63-8.27-3.84-12.15-1.67-.5.28-.34.57.16.61a3.87,3.87,0,0,0,2-.55,4.47,4.47,0,0,1,3.37,0,7.82,7.82,0,0,1,3.51,2.21,8.91,8.91,0,0,1,1.37,9,9.14,9.14,0,0,1-2.79,4,3.59,3.59,0,0,1-3.59.5A8.22,8.22,0,0,1,96,12.1a10.28,10.28,0,0,1,.77-5.48,7.5,7.5,0,0,1,1.39-2.08,8.55,8.55,0,0,1,.93-.76,1.14,1.14,0,0,1,.16-.09c-.15.05.06,0,.24,0a3.67,3.67,0,0,0,2-.37c.19-.1,1-.65.36-.73Z"/><path class="cls-1" d="M119.2,20.84l.42-17.26-2.79.75L126,12a2.22,2.22,0,0,0,2.69-.55l5.91-8.87L131.83,3c1.08,6.33,2.32,12.62,3.4,18.94.16.94,3.07.26,2.9-.77-1.09-6.33-2.32-12.62-3.4-18.94-.18-1-2.48-.11-2.8.37L126,11.43l2.69-.54-9.19-7.68c-.55-.46-2.77-.19-2.79.75l-.42,17.26c0,1.15,2.87.55,2.89-.38Z"/><path class="cls-1" d="M151.44,2.39c-4.66-1.56-9.29,1.66-11,5.94-1.56,4-1.76,9.18,2,12a10,10,0,0,0,10.93.22,11.14,11.14,0,0,0,4.85-10.24A8.13,8.13,0,0,0,155,4a10.72,10.72,0,0,0-7.26-1.3c-.62.07-1.52.42-1.6,1.16s.77,1,1.34.94a8.11,8.11,0,0,1,4.79.57,5.81,5.81,0,0,1,2.85,4.21,9.63,9.63,0,0,1-2.24,8.54,6.1,6.1,0,0,1-7,1.23c-3.25-1.47-3.88-5-3.31-8.18s3.07-8.19,7.2-6.8a2,2,0,0,0,2.05-.55.83.83,0,0,0-.37-1.39Z"/><path class="cls-1" d="M172,2.91a9.42,9.42,0,0,0-7.39,1.49,8.38,8.38,0,0,0-2.52,2.71c-.6,1.08-1.12,2.52,0,3.45s2.89,1.13,4.29,1.29a16.19,16.19,0,0,1,4,.68,3.81,3.81,0,0,1,2.47,2.38A3.55,3.55,0,0,1,172,18c-2.09,2.63-5.94,1.28-8.61.47a2.26,2.26,0,0,0-2.05.55.66.66,0,0,0,.32,1.18c3,.91,6.29,1.72,9.4.64,2.24-.77,4.54-2.79,4.72-5.31s-2.08-4.3-4.41-4.93A32.75,32.75,0,0,0,167,10a7.12,7.12,0,0,1-2-.51c-.77-.37-.7-1-.4-1.68a5.15,5.15,0,0,1,5.7-3.14,2.27,2.27,0,0,0,2-.55A.66.66,0,0,0,172,2.91Z"/><path class="cls-1" d="M46.23,2.85h8.68a2.31,2.31,0,0,0,1.91-.8c.36-.57-.3-.89-.79-.89H47.35a2.31,2.31,0,0,0-1.91.8c-.36.57.3.89.79.89Z"/></g></g></svg>