<svg xmlns="http://www.w3.org/2000/svg" viewBox="0 0 127.7 34.9"><defs><style>.cls-1{fill:#fff;}</style></defs><g id="Capa_2" data-name="Capa 2"><g id="Capa_2-2" data-name="Capa 2"><path class="cls-1" d="M15.19,13.25a13.1,13.1,0,0,0-11.82,3,10.74,10.74,0,0,0-2.86,11A10.33,10.33,0,0,0,9.17,34a9.16,9.16,0,0,0,6.38-1.53,7.28,7.28,0,0,0,2.7-4.8,15.66,15.66,0,0,0,.13-3.21c0-1.1-.07-2.2-1.15-2.79a7.81,7.81,0,0,0-3.66-.47A21,21,0,0,0,9,21.81c-.49.12-1.4.59-1.22,1.23s1.2.57,1.67.45a16,16,0,0,1,2.84-.43A6.05,6.05,0,0,1,15,23.2c.59.35.49,1.47.51,2.06a15.83,15.83,0,0,1-.08,2.18,6.28,6.28,0,0,1-1.48,3.75,4.56,4.56,0,0,1-4,.91C3.46,31,1,23.11,4.7,18.07A8.43,8.43,0,0,1,13.46,15a2.21,2.21,0,0,0,2-.55c.42-.45.33-1-.31-1.19Z"/><path class="cls-1" d="M26,33.4a197.91,197.91,0,0,0,6-19.6c.17-.67-2.67-.27-2.86.49a198,198,0,0,1-6,19.6c-.21.58,2.58.28,2.87-.49Z"/><path class="cls-1" d="M29.76,14.5l7,19.61c.46,1.28,3.35.47,2.9-.78l-7-19.61c-.46-1.28-3.35-.47-2.9.78Z"/><path class="cls-1" d="M26.28,27.52,35,27.47a2.25,2.25,0,0,0,1.91-.81c.35-.57-.3-.92-.8-.91l-8.7,0a2.3,2.3,0,0,0-1.9.81c-.35.58.29.92.8.92Z"/><path class="cls-1" d="M45.39,13.8q0,9.49-.39,19c-.06,1.15,2.85.57,2.89-.38q.45-9.67.4-19.36c0-.87-2.9-.33-2.9.77Z"/><path class="cls-1" d="M46.38,34H57.11a2.18,2.18,0,0,0,1.9-.82c.34-.58-.29-1-.82-1H47.47a2.18,2.18,0,0,0-1.9.82c-.34.58.28,1,.81,1Z"/><path class="cls-1" d="M62.82,14.55Q63.12,24,64,33.43c.08.92,3,.3,2.89-.78q-.9-9.42-1.19-18.88c0-.88-2.93-.32-2.9.78Z"/><path class="cls-1" d="M64.24,15a76.18,76.18,0,0,1,8.94.13,2.22,2.22,0,0,0,1.91-.8c.38-.59-.32-.85-.79-.88a76.21,76.21,0,0,0-8.94-.13,2.34,2.34,0,0,0-1.91.8c-.35.55.3.9.79.88Z"/><path class="cls-1" d="M66,25.21h8.17c.64,0,1.53-.5,1.6-1.19s-.77-1-1.35-1H66.2a1.64,1.64,0,0,0-1.59,1.19c-.08.77.76,1,1.34,1Z"/><path class="cls-1" d="M65,33.94a64.93,64.93,0,0,0,9.56.22c.56,0,1.52-.4,1.63-1s-.84-.73-1.28-.71a60.53,60.53,0,0,1-8.82-.24,2.15,2.15,0,0,0-1.9.82c-.36.61.31.91.81.95Z"/><path class="cls-1" d="M83.19,14.55l.36,19.66c0,.41,2.91,0,2.9-.78l-.36-19.65c0-.41-2.92,0-2.9.77Z"/><path class="cls-1" d="M84.58,15.23a13,13,0,0,1,5.44,0,4.89,4.89,0,0,1,3.25,2.89c.27.65.73,1.53.22,2.14a6.82,6.82,0,0,1-1.69,1.38,7.19,7.19,0,0,1-4,1.06,2.15,2.15,0,0,0-1.9.83c-.34.59.29,1,.82,1a11.9,11.9,0,0,0,9.33-3.88,2.4,2.4,0,0,0,.41-2.46,8.43,8.43,0,0,0-1.06-2.25,6.74,6.74,0,0,0-4-2.49,17.38,17.38,0,0,0-6.51,0c-.57.08-1.52.38-1.63,1.06s.83.8,1.28.74Z"/><path class="cls-1" d="M84.42,25.32a127.37,127.37,0,0,1,10.73,8.94c.4.36,1.46,0,1.87-.15.23-.09,1.25-.49.86-.85a131,131,0,0,0-10.73-8.94c-.45-.34-1.41,0-1.87.15-.18.07-1.28.53-.86.85Z"/><path class="cls-1" d="M103.44,14.27q-.16,9.82.11,19.66c0,1.53,3,1.1,2.94-.21q-.28-9.84-.11-19.67c0-1.52-2.92-1.1-2.94.22Z"/><path class="cls-1" d="M108.58,5a21.38,21.38,0,0,0,3.39-4,.62.62,0,0,0,0-.71,1.19,1.19,0,0,0-.8-.34,2.14,2.14,0,0,0-1.9.85c-.22.33-.45.65-.69,1l.18-.23a20.37,20.37,0,0,1-2.52,2.74.83.83,0,0,0-.26.73.85.85,0,0,0,.59.5,2.29,2.29,0,0,0,2-.55Z"/><path class="cls-1" d="M118.1,15c.58,0,1.63-.19,1.92-.78s-.25-.82-.78-.82-1.62.2-1.91.78.24.82.77.82Z"/><path class="cls-1" d="M117.37,14.42q-2.9,9.45-5.06,19.09c-.2.89,2.68.44,2.88-.43q2.16-9.64,5.06-19.09c.25-.82-2.61-.44-2.88.43Z"/><path class="cls-1" d="M118.12,14.85l3.42,9.54c1.11,3.08,2.3,6.14,3.26,9.27.18.57,3.06-.24,2.9-.78-1-3.13-2.15-6.19-3.26-9.27L121,14.07c-.22-.59-3.08.29-2.9.78Z"/><path class="cls-1" d="M115.68,28.25l8.17-.72c.55-.05,1.52-.39,1.64-1s-.86-.72-1.27-.69l-8.18.73c-.55,0-1.51.38-1.63,1s.85.73,1.27.69Z"/></g></g></svg>